<svg width="1439" height="1135" viewBox="0 0 1439 1135" fill="none" xmlns="http://www.w3.org/2000/svg">
<g opacity="0.2">
<path fill-rule="evenodd" clip-rule="evenodd" d="M1439 1057C1438.49 866.933 1286.46 713 1099.01 713H1099V1057H1439Z" fill="#2E7D32"/>
<path fill-rule="evenodd" clip-rule="evenodd" d="M1439 660C1438.16 922.447 1189.11 1135 882.018 1135H882L882 660L1439 660Z" fill="#FF6F00"/>
<rect width="882" height="389" transform="matrix(1 0 0 -1 0 1049)" fill="#FF6F00"/>
<circle opacity="0.499372" cx="719" cy="558" r="558" transform="rotate(180 719 558)" fill="#2E7D32"/>
<path fill-rule="evenodd" clip-rule="evenodd" d="M262 660C261.606 515.24 144.456 398 0.00824694 398H0V660H262Z" fill="#0D47A1"/>
<path fill-rule="evenodd" clip-rule="evenodd" d="M1174 663C1174.4 516.582 1292.89 398 1438.99 398H1439V663H1174Z" fill="#2E7D32"/>
<path fill-rule="evenodd" clip-rule="evenodd" d="M1174 663C1173.77 577.359 1104.01 508 1018 508H1018V663H1174Z" fill="#0D47A1"/>
</g>
</svg>
