<svg width="136" height="88" viewBox="0 0 136 88" fill="none" xmlns="http://www.w3.org/2000/svg">
<path fill-rule="evenodd" clip-rule="evenodd" d="M68.2545 80.3219C66.9855 80.3219 65.9548 79.2956 65.9548 78.0295C65.9548 76.7637 66.9855 75.7373 68.2545 75.7373C69.5256 75.7373 70.5563 76.7637 70.5563 78.0295C70.5563 79.2956 69.5256 80.3219 68.2545 80.3219Z" fill="#4CAF50"/>
<path fill-rule="evenodd" clip-rule="evenodd" d="M68.2545 73.3833C66.9855 73.3833 65.9548 72.3568 65.9548 71.0911C65.9548 69.8249 66.9855 68.7987 68.2545 68.7987C69.5256 68.7987 70.5563 69.8249 70.5563 71.0911C70.5563 72.3568 69.5256 73.3833 68.2545 73.3833Z" fill="#4CAF50"/>
<path fill-rule="evenodd" clip-rule="evenodd" d="M68.2545 87.3846C66.9855 87.3846 65.9548 86.3581 65.9548 85.0922C65.9548 83.8262 66.9855 82.7998 68.2545 82.7998C69.5256 82.7998 70.5563 83.8262 70.5563 85.0922C70.5563 86.3581 69.5256 87.3846 68.2545 87.3846Z" fill="#4CAF50"/>
<path fill-rule="evenodd" clip-rule="evenodd" d="M43.5872 17.1669C57.2181 17.2089 68.2545 28.2999 68.2545 41.9752V41.8975H43.5872V17.1669Z" fill="#E0E0E0"/>
<path fill-rule="evenodd" clip-rule="evenodd" d="M68.3339 17.0888C73.0316 17.0888 76.8428 13.2936 76.8428 8.612C76.8428 3.93039 73.0316 0.134827 68.3339 0.134827C63.6342 0.134827 59.8251 3.93039 59.8251 8.612C59.8251 13.2936 63.6342 17.0888 68.3339 17.0888Z" fill="#4CAF50"/>
<path fill-rule="evenodd" clip-rule="evenodd" d="M43.5872 17.1669C57.2181 17.2089 68.2545 28.2999 68.2545 41.9752V41.8975H43.5872V17.1669Z" fill="#C8E6C9"/>
<path fill-rule="evenodd" clip-rule="evenodd" d="M92.9218 17.1669C79.2909 17.2089 68.2545 28.2999 68.2545 41.9752L68.2566 41.8975H92.9218V17.1669Z" fill="#FFA000"/>
<path fill-rule="evenodd" clip-rule="evenodd" d="M68.2545 66.473C54.6236 66.4305 43.5872 55.3396 43.5872 41.6643C43.5872 41.6382 43.5872 41.6122 43.5872 41.5864H68.2545V66.473Z" fill="#FFECB3"/>
<path fill-rule="evenodd" clip-rule="evenodd" d="M68.2545 66.473C81.8854 66.4305 92.9218 55.3396 92.9218 41.6643V41.5864H68.2545V66.473Z" fill="#4CAF50"/>
<path fill-rule="evenodd" clip-rule="evenodd" d="M0.233765 64.341C8.01509 56.9683 20.3602 57.2918 27.8363 65.0756L27.7945 65.0317L13.7539 78.417L0.233765 64.341Z" fill="#E0E0E0"/>
<path fill-rule="evenodd" clip-rule="evenodd" d="M14.2745 50.8683C16.9505 48.3185 17.0424 44.0909 14.4835 41.4264C11.9246 38.7616 7.68061 38.6687 5.00669 41.2187C2.33069 43.7689 2.2387 47.9961 4.79763 50.6609C7.35865 53.3254 11.6005 53.4186 14.2745 50.8683Z" fill="#FF6F00"/>
<path fill-rule="evenodd" clip-rule="evenodd" d="M0.233765 64.341C8.01509 56.9683 20.3602 57.2918 27.8363 65.0756L27.7945 65.0317L13.7539 78.417L0.233765 64.341Z" fill="#4CAF50"/>
<path fill-rule="evenodd" clip-rule="evenodd" d="M28.313 37.5694C20.5777 44.9902 20.3603 57.2918 27.8363 65.0756L27.7945 65.0311L41.8352 51.6455L28.313 37.5694Z" fill="#FFA000"/>
<path fill-rule="evenodd" clip-rule="evenodd" d="M41.231 79.0188C33.4497 86.3914 21.1024 86.068 13.6263 78.2842C13.6117 78.2696 13.5992 78.2548 13.5845 78.2398L27.6252 64.8542L41.231 79.0188Z" fill="#C8E6C9"/>
<path fill-rule="evenodd" clip-rule="evenodd" d="M41.231 79.0188C48.9642 71.5978 49.1838 59.2963 41.7056 51.5125C41.693 51.4978 41.6784 51.483 41.6638 51.4684L27.6252 64.8542L41.231 79.0188Z" fill="#FFECB3"/>
<path fill-rule="evenodd" clip-rule="evenodd" d="M135.88 64.3412C128.099 56.9686 115.754 57.292 108.277 65.0758L108.319 65.0319L122.36 78.4173L135.88 64.3412Z" fill="#E0E0E0"/>
<path fill-rule="evenodd" clip-rule="evenodd" d="M121.839 50.8686C119.163 48.3187 119.071 44.0912 121.63 41.4266C124.189 38.7618 128.433 38.6689 131.107 41.219C133.783 43.7692 133.875 47.9963 131.316 50.6611C128.757 53.3257 124.513 53.4188 121.839 50.8686Z" fill="#FF6F00"/>
<path fill-rule="evenodd" clip-rule="evenodd" d="M135.88 64.3412C128.099 56.9686 115.754 57.292 108.277 65.0758L108.319 65.0319L122.36 78.4173L135.88 64.3412Z" fill="#4CAF50"/>
<path fill-rule="evenodd" clip-rule="evenodd" d="M107.801 37.5696C115.536 44.9903 115.754 57.292 108.278 65.0758L108.319 65.0313L94.2808 51.6456L107.801 37.5696Z" fill="#FFECB3"/>
<path fill-rule="evenodd" clip-rule="evenodd" d="M94.8849 79.019C102.664 86.3917 115.011 86.0682 122.487 78.2844C122.502 78.2698 122.515 78.255 122.529 78.24L108.491 64.8544L94.8849 79.019Z" fill="#C8E6C9"/>
<path fill-rule="evenodd" clip-rule="evenodd" d="M94.8849 79.019C87.1495 71.5981 86.93 59.2964 94.4082 51.5128C94.4207 51.498 94.4354 51.4832 94.45 51.4686L108.491 64.8544L94.8849 79.019Z" fill="#2E7D32"/>
<path fill-rule="evenodd" clip-rule="evenodd" d="M90.4527 82.7734C90.1057 82.3797 90.1433 81.7798 90.5384 81.4337C90.9336 81.0873 91.5357 81.1256 91.8848 81.5193C92.2318 81.9127 92.1921 82.5126 91.797 82.8588C91.4019 83.2051 90.8018 83.1668 90.4527 82.7734Z" fill="#4CAF50"/>
<path fill-rule="evenodd" clip-rule="evenodd" d="M92.6186 80.875C92.2716 80.4816 92.3092 79.8819 92.7043 79.5356C93.0994 79.1894 93.7015 79.2277 94.0486 79.6212C94.3977 80.0148 94.358 80.6145 93.9629 80.9609C93.5677 81.307 92.9656 81.2687 92.6186 80.875Z" fill="#4CAF50"/>
<path fill-rule="evenodd" clip-rule="evenodd" d="M88.2492 84.705C87.9022 84.3115 87.9398 83.7119 88.3349 83.3655C88.7301 83.0191 89.3322 83.0574 89.6792 83.4511C90.0283 83.8448 89.9886 84.4444 89.5935 84.7908C89.1984 85.137 88.5963 85.0988 88.2492 84.705Z" fill="#4CAF50"/>
<path fill-rule="evenodd" clip-rule="evenodd" d="M73.0253 96.7869L86.0541 85.3652C86.4388 85.0282 87.0242 85.0655 87.3628 85.4483C87.7015 85.8314 87.6639 86.4148 87.2792 86.7518L74.2483 98.1737C73.8657 98.5107 73.2804 98.4734 72.9417 98.0904C72.603 97.7075 72.6406 97.1239 73.0253 96.7869Z" fill="#4CAF50"/>
<path fill-rule="evenodd" clip-rule="evenodd" d="M73.0253 96.7869L86.0541 85.3652C86.4388 85.0282 87.0242 85.0655 87.3628 85.4483L72.9417 98.0904C72.603 97.7075 72.6406 97.1239 73.0253 96.7869Z" fill="#2E7D32"/>
<path d="M72.9291 98.0699L87.3502 85.4275" stroke="#A8A8A8" stroke-width="0.7378"/>
<path fill-rule="evenodd" clip-rule="evenodd" d="M45.661 82.7734C46.0081 82.3797 45.9704 81.7798 45.5753 81.4337C45.1802 81.0873 44.5781 81.1256 44.231 81.5193C43.8819 81.9127 43.9216 82.5126 44.3167 82.8588C44.7119 83.2051 45.314 83.1668 45.661 82.7734Z" fill="#4CAF50"/>
<path fill-rule="evenodd" clip-rule="evenodd" d="M43.4951 80.875C43.8443 80.4816 43.8045 79.8819 43.4094 79.5356C43.0143 79.1894 42.4122 79.2277 42.0651 79.6212C41.7181 80.0148 41.7557 80.6145 42.1509 80.9609C42.546 81.307 43.1481 81.2687 43.4951 80.875Z" fill="#4CAF50"/>
<path fill-rule="evenodd" clip-rule="evenodd" d="M47.8645 84.705C48.2116 84.3115 48.1739 83.7119 47.7788 83.3655C47.3837 83.0191 46.7816 83.0574 46.4345 83.4511C46.0875 83.8448 46.1251 84.4444 46.5202 84.7908C46.9154 85.137 47.5175 85.0988 47.8645 84.705Z" fill="#4CAF50"/>
<path fill-rule="evenodd" clip-rule="evenodd" d="M63.0906 96.7869L50.0597 85.3652C49.6751 85.0282 49.0897 85.0655 48.751 85.4483C48.4144 85.8314 48.45 86.4148 48.8346 86.7518L61.8655 98.1737C62.2502 98.5107 62.8356 98.4734 63.1743 98.0904C63.5109 97.7075 63.4732 97.1239 63.0906 96.7869Z" fill="#4CAF50"/>
<path fill-rule="evenodd" clip-rule="evenodd" d="M63.0906 96.7869L50.0597 85.3652C49.675 85.0282 49.0897 85.0655 48.751 85.4483L63.1742 98.0904C63.5108 97.7075 63.4732 97.1239 63.0906 96.7869Z" fill="#2E7D32"/>
<path d="M63.1701 98.1143L48.7489 85.4719" stroke="#A8A8A8" stroke-width="0.7378"/>
</svg>
