<svg width="57" height="63" viewBox="0 0 57 63" fill="none" xmlns="http://www.w3.org/2000/svg">
<path fill-rule="evenodd" clip-rule="evenodd" d="M27.4746 22.6348C33.533 22.6348 38.4459 17.7868 38.4459 11.8062C38.4459 5.82561 33.533 0.977539 27.4746 0.977539C21.4161 0.977539 16.5054 5.82561 16.5054 11.8062C16.5054 17.7868 21.4161 22.6348 27.4746 22.6348Z" fill="#4CAF50"/>
<path fill-rule="evenodd" clip-rule="evenodd" d="M28.3801 29.9866C44.0559 29.9866 56.7624 42.5296 56.7624 58.0024V114.63H0V58.0024C0 42.5296 12.7065 29.9866 28.3801 29.9866Z" fill="#2196F3"/>
<path fill-rule="evenodd" clip-rule="evenodd" d="M28.4813 57.8036C30.5387 57.8036 32.2065 56.1579 32.2065 54.1278C32.2065 52.0977 30.5387 50.4519 28.4813 50.4519C26.426 50.4519 24.7582 52.0977 24.7582 54.1278C24.7582 56.1579 26.426 57.8036 28.4813 57.8036Z" fill="white"/>
<path fill-rule="evenodd" clip-rule="evenodd" d="M28.4813 46.6766C30.5387 46.6766 32.2065 45.0311 32.2065 43.001C32.2065 40.9707 30.5387 39.3251 28.4813 39.3251C26.426 39.3251 24.7582 40.9707 24.7582 43.001C24.7582 45.0311 26.426 46.6766 28.4813 46.6766Z" fill="white"/>
<path fill-rule="evenodd" clip-rule="evenodd" d="M28.4813 69.1291C30.5387 69.1291 32.2065 67.4833 32.2065 65.4532C32.2065 63.4231 30.5387 61.7773 28.4813 61.7773C26.426 61.7773 24.7582 63.4231 24.7582 65.4532C24.7582 67.4833 26.426 69.1291 28.4813 69.1291Z" fill="white"/>
</svg>
