<svg width="58" height="105" viewBox="0 0 58 105" fill="none" xmlns="http://www.w3.org/2000/svg">
<path fill-rule="evenodd" clip-rule="evenodd" d="M28.7037 0.337097C41.9927 0.337097 52.7641 10.9894 52.7641 24.1296H4.64325C4.64325 10.9894 15.4167 0.337097 28.7037 0.337097Z" fill="#4CAF50"/>
<path fill-rule="evenodd" clip-rule="evenodd" d="M28.882 9.03729C39.4058 9.03729 47.9344 17.4637 47.9344 27.8581H9.83173C9.83173 17.4637 18.3624 9.03729 28.882 9.03729Z" fill="#C8E6C9"/>
<path fill-rule="evenodd" clip-rule="evenodd" d="M28.9722 18.4476C36.777 18.4476 43.1047 24.7276 43.1047 32.4747C43.1047 32.5339 43.1047 32.5932 43.1026 32.6523L14.8419 32.6521L14.8398 32.4747C14.8398 24.8051 21.0416 18.5736 28.7394 18.4495L28.9722 18.4476Z" fill="#2E7D32"/>
<path fill-rule="evenodd" clip-rule="evenodd" d="M28.6156 66.0325C12.9956 65.9844 0.350647 53.403 0.350647 37.8901C0.350647 37.8605 0.350647 37.8307 0.350647 37.8011H28.6156V66.0325Z" fill="#FFECB3"/>
<path fill-rule="evenodd" clip-rule="evenodd" d="M28.6156 66.0325C44.3321 65.9846 57.0589 53.4032 57.0589 37.8901C57.0589 37.8605 57.0589 37.8307 57.0568 37.8011H28.6156V66.0325Z" fill="#FFA000"/>
<path fill-rule="evenodd" clip-rule="evenodd" d="M29.4045 89.6106C27.9232 89.6106 26.7231 88.4198 26.7231 86.9504C26.7231 85.4813 27.9232 84.2903 29.4045 84.2903C30.8836 84.2903 32.0837 85.4813 32.0837 86.9504C32.0837 88.4198 30.8836 89.6106 29.4045 89.6106Z" fill="#4CAF50"/>
<path fill-rule="evenodd" clip-rule="evenodd" d="M29.4045 81.5582C27.9232 81.5582 26.7231 80.3674 26.7231 78.8981C26.7231 77.4289 27.9232 76.238 29.4045 76.238C30.8836 76.238 32.0837 77.4289 32.0837 78.8981C32.0837 80.3674 30.8836 81.5582 29.4045 81.5582Z" fill="#4CAF50"/>
<path fill-rule="evenodd" clip-rule="evenodd" d="M29.4045 97.8068C27.9232 97.8068 26.7231 96.6159 26.7231 95.1467C26.7231 93.6775 27.9232 92.4864 29.4045 92.4864C30.8836 92.4864 32.0837 93.6775 32.0837 95.1467C32.0837 96.6159 30.8836 97.8068 29.4045 97.8068Z" fill="#4CAF50"/>
<path fill-rule="evenodd" clip-rule="evenodd" d="M26.7231 152.089V103.631C26.7231 102.201 27.8918 101.042 29.331 101.042C30.7703 101.042 31.9389 102.201 31.9389 103.631V152.089C31.9389 153.518 30.7703 154.677 29.331 154.677C27.8918 154.677 26.7231 153.518 26.7231 152.089Z" fill="#4CAF50"/>
<path fill-rule="evenodd" clip-rule="evenodd" d="M26.7231 152.089V103.631C26.7231 102.201 27.8918 101.042 29.331 101.042V154.677C27.8918 154.677 26.7231 153.518 26.7231 152.089Z" fill="#2E7D32"/>
<path d="M29.3289 154.677V101.042" stroke="#A8A8A8" stroke-width="0.7378"/>
</svg>
