<svg width="398" height="115" viewBox="0 0 398 115" fill="none" xmlns="http://www.w3.org/2000/svg">
<mask id="mask0_0_117" style="mask-type:alpha" maskUnits="userSpaceOnUse" x="0" y="0" width="398" height="115">
<rect width="398" height="115" fill="white"/>
</mask>
<g mask="url(#mask0_0_117)">
<path fill-rule="evenodd" clip-rule="evenodd" d="M69.7037 10.3371C82.9927 10.3371 93.7641 20.9894 93.7641 34.1296H45.6432C45.6432 20.9894 56.4167 10.3371 69.7037 10.3371Z" fill="#4CAF50"/>
<path fill-rule="evenodd" clip-rule="evenodd" d="M69.882 19.0373C80.4058 19.0373 88.9344 27.4637 88.9344 37.8581H50.8317C50.8317 27.4637 59.3624 19.0373 69.882 19.0373Z" fill="#C8E6C9"/>
<path fill-rule="evenodd" clip-rule="evenodd" d="M69.9722 28.4476C77.777 28.4476 84.1047 34.7276 84.1047 42.4747C84.1047 42.5339 84.1047 42.5932 84.1026 42.6523L55.8419 42.6521L55.8398 42.4747C55.8398 34.8051 62.0416 28.5736 69.7394 28.4495L69.9722 28.4476Z" fill="#2E7D32"/>
<path fill-rule="evenodd" clip-rule="evenodd" d="M69.6156 76.0325C53.9956 75.9844 41.3506 63.403 41.3506 47.8901C41.3506 47.8605 41.3506 47.8307 41.3506 47.8011H69.6156V76.0325Z" fill="#FFECB3"/>
<path fill-rule="evenodd" clip-rule="evenodd" d="M69.6156 76.0325C85.3321 75.9846 98.0589 63.4032 98.0589 47.8901C98.0589 47.8605 98.0589 47.8307 98.0568 47.8011H69.6156V76.0325Z" fill="#FFA000"/>
<path fill-rule="evenodd" clip-rule="evenodd" d="M70.4045 99.6106C68.9232 99.6106 67.7231 98.4198 67.7231 96.9504C67.7231 95.4813 68.9232 94.2903 70.4045 94.2903C71.8836 94.2903 73.0837 95.4813 73.0837 96.9504C73.0837 98.4198 71.8836 99.6106 70.4045 99.6106Z" fill="#4CAF50"/>
<path fill-rule="evenodd" clip-rule="evenodd" d="M70.4045 91.5582C68.9232 91.5582 67.7231 90.3674 67.7231 88.8981C67.7231 87.4289 68.9232 86.238 70.4045 86.238C71.8836 86.238 73.0837 87.4289 73.0837 88.8981C73.0837 90.3674 71.8836 91.5582 70.4045 91.5582Z" fill="#4CAF50"/>
<path fill-rule="evenodd" clip-rule="evenodd" d="M70.4045 107.807C68.9232 107.807 67.7231 106.616 67.7231 105.147C67.7231 103.678 68.9232 102.486 70.4045 102.486C71.8836 102.486 73.0837 103.678 73.0837 105.147C73.0837 106.616 71.8836 107.807 70.4045 107.807Z" fill="#4CAF50"/>
<path fill-rule="evenodd" clip-rule="evenodd" d="M67.7231 162.089V113.631C67.7231 112.201 68.8918 111.042 70.331 111.042C71.7703 111.042 72.9389 112.201 72.9389 113.631V162.089C72.9389 163.518 71.7703 164.677 70.331 164.677C68.8918 164.677 67.7231 163.518 67.7231 162.089Z" fill="#4CAF50"/>
<path fill-rule="evenodd" clip-rule="evenodd" d="M67.7231 162.089V113.631C67.7231 112.201 68.8918 111.042 70.331 111.042V164.677C68.8918 164.677 67.7231 163.518 67.7231 162.089Z" fill="#2E7D32"/>
<path d="M70.3289 164.677V111.042" stroke="#A8A8A8" stroke-width="0.7378"/>
<path fill-rule="evenodd" clip-rule="evenodd" d="M188.255 107.322C186.986 107.322 185.955 106.296 185.955 105.029C185.955 103.764 186.986 102.737 188.255 102.737C189.526 102.737 190.556 103.764 190.556 105.029C190.556 106.296 189.526 107.322 188.255 107.322Z" fill="#4CAF50"/>
<path fill-rule="evenodd" clip-rule="evenodd" d="M188.255 100.383C186.986 100.383 185.955 99.3568 185.955 98.0911C185.955 96.8249 186.986 95.7987 188.255 95.7987C189.526 95.7987 190.556 96.8249 190.556 98.0911C190.556 99.3568 189.526 100.383 188.255 100.383Z" fill="#4CAF50"/>
<path fill-rule="evenodd" clip-rule="evenodd" d="M188.255 114.385C186.986 114.385 185.955 113.358 185.955 112.092C185.955 110.826 186.986 109.8 188.255 109.8C189.526 109.8 190.556 110.826 190.556 112.092C190.556 113.358 189.526 114.385 188.255 114.385Z" fill="#4CAF50"/>
<path fill-rule="evenodd" clip-rule="evenodd" d="M163.587 44.1669C177.218 44.2089 188.254 55.2999 188.254 68.9752V68.8975H163.587V44.1669Z" fill="#E0E0E0"/>
<path fill-rule="evenodd" clip-rule="evenodd" d="M188.334 44.0888C193.032 44.0888 196.843 40.2936 196.843 35.612C196.843 30.9304 193.032 27.1348 188.334 27.1348C183.634 27.1348 179.825 30.9304 179.825 35.612C179.825 40.2936 183.634 44.0888 188.334 44.0888Z" fill="#4CAF50"/>
<path fill-rule="evenodd" clip-rule="evenodd" d="M163.587 44.1669C177.218 44.2089 188.254 55.2999 188.254 68.9752V68.8975H163.587V44.1669Z" fill="#C8E6C9"/>
<path fill-rule="evenodd" clip-rule="evenodd" d="M212.922 44.1669C199.291 44.2089 188.255 55.2999 188.255 68.9752L188.257 68.8975H212.922V44.1669Z" fill="#FFA000"/>
<path fill-rule="evenodd" clip-rule="evenodd" d="M188.254 93.473C174.624 93.4305 163.587 82.3396 163.587 68.6643C163.587 68.6382 163.587 68.6122 163.587 68.5864H188.254V93.473Z" fill="#FFECB3"/>
<path fill-rule="evenodd" clip-rule="evenodd" d="M188.255 93.473C201.885 93.4305 212.922 82.3396 212.922 68.6643V68.5864H188.255V93.473Z" fill="#4CAF50"/>
<path fill-rule="evenodd" clip-rule="evenodd" d="M120.234 91.341C128.015 83.9683 140.36 84.2918 147.836 92.0756L147.795 92.0317L133.754 105.417L120.234 91.341Z" fill="#E0E0E0"/>
<path fill-rule="evenodd" clip-rule="evenodd" d="M134.274 77.8683C136.95 75.3185 137.042 71.0909 134.484 68.4264C131.925 65.7616 127.681 65.6687 125.007 68.2187C122.331 70.7689 122.239 74.9961 124.798 77.6609C127.359 80.3254 131.601 80.4186 134.274 77.8683Z" fill="#FF6F00"/>
<path fill-rule="evenodd" clip-rule="evenodd" d="M120.234 91.341C128.015 83.9683 140.36 84.2918 147.836 92.0756L147.795 92.0317L133.754 105.417L120.234 91.341Z" fill="#4CAF50"/>
<path fill-rule="evenodd" clip-rule="evenodd" d="M148.313 64.5694C140.578 71.9902 140.36 84.2918 147.836 92.0756L147.795 92.0311L161.835 78.6455L148.313 64.5694Z" fill="#FFA000"/>
<path fill-rule="evenodd" clip-rule="evenodd" d="M161.231 106.019C153.45 113.391 141.102 113.068 133.626 105.284C133.612 105.27 133.599 105.255 133.585 105.24L147.625 91.8542L161.231 106.019Z" fill="#C8E6C9"/>
<path fill-rule="evenodd" clip-rule="evenodd" d="M161.231 106.019C168.964 98.5978 169.184 86.2963 161.706 78.5125C161.693 78.4978 161.678 78.483 161.664 78.4684L147.625 91.8542L161.231 106.019Z" fill="#FFECB3"/>
<path fill-rule="evenodd" clip-rule="evenodd" d="M255.88 91.3412C248.099 83.9686 235.754 84.292 228.277 92.0758L228.319 92.0319L242.36 105.417L255.88 91.3412Z" fill="#E0E0E0"/>
<path fill-rule="evenodd" clip-rule="evenodd" d="M241.839 77.8686C239.163 75.3187 239.071 71.0912 241.63 68.4266C244.189 65.7618 248.433 65.6689 251.107 68.219C253.783 70.7692 253.875 74.9963 251.316 77.6611C248.757 80.3257 244.513 80.4188 241.839 77.8686Z" fill="#FF6F00"/>
<path fill-rule="evenodd" clip-rule="evenodd" d="M255.88 91.3412C248.099 83.9686 235.754 84.292 228.277 92.0758L228.319 92.0319L242.36 105.417L255.88 91.3412Z" fill="#4CAF50"/>
<path fill-rule="evenodd" clip-rule="evenodd" d="M227.801 64.5696C235.536 71.9903 235.754 84.292 228.278 92.0758L228.319 92.0313L214.281 78.6456L227.801 64.5696Z" fill="#FFECB3"/>
<path fill-rule="evenodd" clip-rule="evenodd" d="M214.885 106.019C222.664 113.392 235.011 113.068 242.487 105.284C242.502 105.27 242.515 105.255 242.529 105.24L228.491 91.8544L214.885 106.019Z" fill="#C8E6C9"/>
<path fill-rule="evenodd" clip-rule="evenodd" d="M214.885 106.019C207.15 98.5981 206.93 86.2964 214.408 78.5128C214.421 78.498 214.435 78.4832 214.45 78.4686L228.491 91.8544L214.885 106.019Z" fill="#2E7D32"/>
<path fill-rule="evenodd" clip-rule="evenodd" d="M210.453 109.773C210.106 109.38 210.143 108.78 210.538 108.434C210.934 108.087 211.536 108.126 211.885 108.519C212.232 108.913 212.192 109.513 211.797 109.859C211.402 110.205 210.802 110.167 210.453 109.773Z" fill="#4CAF50"/>
<path fill-rule="evenodd" clip-rule="evenodd" d="M212.619 107.875C212.272 107.482 212.309 106.882 212.704 106.536C213.099 106.189 213.702 106.228 214.049 106.621C214.398 107.015 214.358 107.614 213.963 107.961C213.568 108.307 212.966 108.269 212.619 107.875Z" fill="#4CAF50"/>
<path fill-rule="evenodd" clip-rule="evenodd" d="M208.249 111.705C207.902 111.312 207.94 110.712 208.335 110.365C208.73 110.019 209.332 110.057 209.679 110.451C210.028 110.845 209.989 111.444 209.593 111.791C209.198 112.137 208.596 112.099 208.249 111.705Z" fill="#4CAF50"/>
<path fill-rule="evenodd" clip-rule="evenodd" d="M193.025 123.787L206.054 112.365C206.439 112.028 207.024 112.065 207.363 112.448C207.702 112.831 207.664 113.415 207.279 113.752L194.248 125.174C193.866 125.511 193.28 125.473 192.942 125.09C192.603 124.708 192.641 124.124 193.025 123.787Z" fill="#4CAF50"/>
<path fill-rule="evenodd" clip-rule="evenodd" d="M193.025 123.787L206.054 112.365C206.439 112.028 207.024 112.065 207.363 112.448L192.942 125.09C192.603 124.708 192.641 124.124 193.025 123.787Z" fill="#2E7D32"/>
<path d="M192.929 125.07L207.35 112.427" stroke="#A8A8A8" stroke-width="0.7378"/>
<path fill-rule="evenodd" clip-rule="evenodd" d="M165.661 109.773C166.008 109.38 165.97 108.78 165.575 108.434C165.18 108.087 164.578 108.126 164.231 108.519C163.882 108.913 163.922 109.513 164.317 109.859C164.712 110.205 165.314 110.167 165.661 109.773Z" fill="#4CAF50"/>
<path fill-rule="evenodd" clip-rule="evenodd" d="M163.495 107.875C163.844 107.482 163.805 106.882 163.409 106.536C163.014 106.189 162.412 106.228 162.065 106.621C161.718 107.015 161.756 107.614 162.151 107.961C162.546 108.307 163.148 108.269 163.495 107.875Z" fill="#4CAF50"/>
<path fill-rule="evenodd" clip-rule="evenodd" d="M167.865 111.705C168.212 111.312 168.174 110.712 167.779 110.365C167.384 110.019 166.782 110.057 166.435 110.451C166.087 110.845 166.125 111.444 166.52 111.791C166.915 112.137 167.517 112.099 167.865 111.705Z" fill="#4CAF50"/>
<path fill-rule="evenodd" clip-rule="evenodd" d="M183.091 123.787L170.06 112.365C169.675 112.028 169.09 112.065 168.751 112.448C168.414 112.831 168.45 113.415 168.835 113.752L181.866 125.174C182.25 125.511 182.836 125.473 183.174 125.09C183.511 124.708 183.473 124.124 183.091 123.787Z" fill="#4CAF50"/>
<path fill-rule="evenodd" clip-rule="evenodd" d="M183.091 123.787L170.06 112.365C169.675 112.028 169.09 112.065 168.751 112.448L183.174 125.09C183.511 124.708 183.473 124.124 183.091 123.787Z" fill="#2E7D32"/>
<path d="M183.17 125.114L168.749 112.472" stroke="#A8A8A8" stroke-width="0.7378"/>
<path fill-rule="evenodd" clip-rule="evenodd" d="M296.475 74.6348C302.533 74.6348 307.446 69.7868 307.446 63.8062C307.446 57.8256 302.533 52.9775 296.475 52.9775C290.416 52.9775 285.505 57.8256 285.505 63.8062C285.505 69.7868 290.416 74.6348 296.475 74.6348Z" fill="#4CAF50"/>
<path fill-rule="evenodd" clip-rule="evenodd" d="M297.38 81.9866C313.056 81.9866 325.762 94.5296 325.762 110.002V166.63H269V110.002C269 94.5296 281.707 81.9866 297.38 81.9866Z" fill="#2196F3"/>
<path fill-rule="evenodd" clip-rule="evenodd" d="M297.481 109.804C299.539 109.804 301.206 108.158 301.206 106.128C301.206 104.098 299.539 102.452 297.481 102.452C295.426 102.452 293.758 104.098 293.758 106.128C293.758 108.158 295.426 109.804 297.481 109.804Z" fill="white"/>
<path fill-rule="evenodd" clip-rule="evenodd" d="M297.481 98.6766C299.539 98.6766 301.206 97.0311 301.206 95.001C301.206 92.9707 299.539 91.3251 297.481 91.3251C295.426 91.3251 293.758 92.9707 293.758 95.001C293.758 97.0311 295.426 98.6766 297.481 98.6766Z" fill="white"/>
<path fill-rule="evenodd" clip-rule="evenodd" d="M297.481 121.129C299.539 121.129 301.206 119.483 301.206 117.453C301.206 115.423 299.539 113.777 297.481 113.777C295.426 113.777 293.758 115.423 293.758 117.453C293.758 119.483 295.426 121.129 297.481 121.129Z" fill="white"/>
</g>
</svg>
